<svg xmlns="http://www.w3.org/2000/svg" width="64" height="35" fill="none" viewBox="0 0 64 35"><path fill="#000" d="M40.8641 23.163L50.1115 0H43.981L37.6557 14.9685L33.1571 0H28.4447L23.6153 14.9685L20.2092 8.14758L17.127 17.7386L20.2563 23.1632H26.2896L30.6541 9.73983L34.8153 23.1632L40.8641 23.163Z"/><path fill="#000" d="M7.32001 15.2114H11.0864C12.2275 15.2114 13.2434 15.0826 14.1344 14.8247L15.1087 11.7861L17.831 3.29389C17.6219 2.95883 17.3841 2.64295 17.1205 2.34989C15.7231 0.783375 13.6777 0 10.985 0H1.51514V23.163H7.32001V15.2114ZM12.3055 5.3288C12.8517 5.88508 13.1247 6.62969 13.1247 7.56263C13.1247 8.50249 12.8843 9.24782 12.4043 9.79884C11.8779 10.411 10.9087 10.717 9.49651 10.717H7.32001V4.49436H9.5127C10.8287 4.49436 11.7597 4.77251 12.3058 5.3288H12.3055ZM46.3548 19.0144L48.1146 14.52H53.1949L50.784 7.70252L53.7995 0L62.4365 23.163H56.0669L54.591 19.0144H46.3548Z"/><path fill="#000" d="M3.2977 31.4487V34.8325H1.3385V25.2286H5.04791C5.76192 25.2286 6.38888 25.3605 6.92874 25.6244C7.47296 25.8882 7.89095 26.2642 8.18265 26.7523C8.47435 27.236 8.6202 27.7879 8.6202 28.4079C8.6202 29.3489 8.3002 30.0921 7.6602 30.6374C7.02451 31.1783 6.14288 31.4487 5.01526 31.4487H3.2977ZM3.2977 29.8459H5.04791C5.566 29.8459 5.96 29.7227 6.22999 29.4765C6.50428 29.2302 6.6414 28.8784 6.6414 28.4211C6.6414 27.9506 6.50428 27.5702 6.22999 27.28C5.95569 26.9898 5.57689 26.8403 5.09363 26.8314H3.2977V29.8459ZM12.0553 34.8325H10.0961V25.2286H12.0553V34.8325ZM15.8366 33.2428H19.9966V34.8325H13.8774V25.2286H15.8366V33.2428ZM23.2097 34.8325H21.2505V25.2286H23.2097V34.8325ZM26.9909 31.4487V34.8325H25.0317V25.2286H28.7411C29.4551 25.2286 30.0821 25.3605 30.6219 25.6244C31.1662 25.8882 31.5842 26.2642 31.8759 26.7523C32.1676 27.236 32.3134 27.7879 32.3134 28.4079C32.3134 29.3489 31.9934 30.0921 31.3534 30.6374C30.7177 31.1783 29.8361 31.4487 28.7085 31.4487H26.9909ZM26.9909 29.8459H28.7411C29.2592 29.8459 29.6533 29.7227 29.9232 29.4765C30.1975 29.2302 30.3346 28.8784 30.3346 28.4211C30.3346 27.9506 30.1975 27.5702 29.9232 27.28C29.6489 26.9898 29.2701 26.8403 28.7868 26.8314H26.9909V29.8459ZM35.7485 34.8325H33.7893V25.2286H35.7485V34.8325ZM45.3029 34.8325H43.3437L39.5298 28.5135V34.8325H37.5706V25.2286H39.5298L43.3502 31.5609V25.2286H45.3029V34.8325ZM52.4997 32.8537H49.0646L48.4115 34.8325H46.3282L49.8678 25.2286H51.6833L55.2425 34.8325H53.1593L52.4997 32.8537ZM49.5935 31.2508H51.9707L50.7756 27.656L49.5935 31.2508ZM61.0613 32.3128C61.0613 31.939 60.9309 31.6532 60.6695 31.4553C60.4081 31.253 59.9383 31.0419 59.2591 30.8221C58.5798 30.5978 58.0421 30.378 57.6458 30.1625C56.5659 29.5732 56.0265 28.7795 56.0265 27.7813C56.0265 27.2624 56.1702 26.8007 56.457 26.3961C56.7488 25.9871 57.165 25.6683 57.7044 25.4396C58.2488 25.211 58.8584 25.0967 59.5332 25.0967C60.2124 25.0967 60.8176 25.222 61.3487 25.4726C61.8799 25.7189 62.2911 26.0685 62.5829 26.5214C62.8791 26.9743 63.0272 27.4889 63.0272 28.0649H61.068C61.068 27.6252 60.9309 27.2844 60.6562 27.0425C60.3821 26.7963 59.9969 26.6731 59.5006 26.6731C59.0214 26.6731 58.6495 26.7765 58.3836 26.9832C58.1183 27.1854 57.9852 27.4537 57.9852 27.7879C57.9852 28.1001 58.1399 28.3617 58.4489 28.5728C58.7628 28.7839 59.222 28.9817 59.8272 29.1665C60.9414 29.5051 61.7539 29.925 62.2629 30.4263C62.7724 30.9276 63.0272 31.552 63.0272 32.2996C63.0272 33.1307 62.7155 33.7837 62.0932 34.2587C61.4709 34.7292 60.6325 34.9644 59.5791 34.9644C58.8473 34.9644 58.1814 34.8303 57.5806 34.562C56.9798 34.2894 56.5206 33.9179 56.2028 33.4473C55.8888 32.9768 55.7324 32.4315 55.7324 31.8115H57.6983C57.6983 32.8713 58.325 33.4011 59.5791 33.4011C60.045 33.4011 60.4081 33.3066 60.6695 33.1175C60.9309 32.924 61.0613 32.6558 61.0613 32.3128Z"/></svg>