<svg xmlns="http://www.w3.org/2000/svg" width="1158" height="627" fill="none" viewBox="0 0 1158 627"><path fill="#CE1026" d="M739.384 414.948L906.704 0H795.781L681.332 268.149L599.935 0H514.671L427.288 268.149L365.659 145.958L309.89 317.774L366.511 414.952H475.677L554.646 174.482L629.938 414.952L739.384 414.948Z"/><path fill="#0038A7" d="M132.446 272.502H200.595C221.241 272.502 239.623 270.194 255.744 265.573L273.372 211.139L322.63 59.0077C318.846 53.0052 314.544 47.3466 309.773 42.0966C284.489 14.0336 247.481 0 198.76 0H27.4141V414.948H132.446V272.502ZM222.653 95.4615C232.535 105.427 237.474 118.766 237.474 135.479C237.474 152.316 233.125 165.668 224.44 175.539C214.916 186.505 197.378 191.988 171.827 191.988H132.446V80.5132H172.12C195.931 80.5132 212.776 85.496 222.658 95.4615H222.653ZM838.732 340.629L870.573 260.116H962.494L918.872 137.985L973.435 0L1129.71 414.948H1014.46L987.756 340.629H838.732Z"/><path fill="#FCD116" d="M59.6689 563.382V624H24.2197V451.953H91.3369C104.256 451.953 115.6 454.316 125.368 459.043C135.215 463.77 142.778 470.505 148.056 479.249C153.334 487.914 155.973 497.801 155.973 508.908C155.973 525.766 150.183 539.079 138.603 548.848C127.101 558.537 111.149 563.382 90.7461 563.382H59.6689ZM59.6689 534.668H91.3369C100.711 534.668 107.84 532.462 112.725 528.051C117.688 523.639 120.169 517.337 120.169 509.145C120.169 500.715 117.688 493.901 112.725 488.702C107.762 483.503 100.908 480.825 92.1641 480.667H59.6689V534.668ZM218.127 624H182.678V451.953H218.127V624ZM286.544 595.522H361.814V624H251.095V451.953H286.544V595.522ZM419.951 624H384.502V451.953H419.951V624ZM488.368 563.382V624H452.919V451.953H520.036C532.955 451.953 544.299 454.316 554.067 459.043C563.914 463.77 571.477 470.505 576.755 479.249C582.033 487.914 584.672 497.801 584.672 508.908C584.672 525.766 578.882 539.079 567.302 548.848C555.8 558.537 539.848 563.382 519.445 563.382H488.368ZM488.368 534.668H520.036C529.41 534.668 536.54 532.462 541.424 528.051C546.387 523.639 548.868 517.337 548.868 509.145C548.868 500.715 546.387 493.901 541.424 488.702C536.461 483.503 529.607 480.825 520.863 480.667H488.368V534.668ZM646.826 624H611.377V451.953H646.826V624ZM819.7 624H784.251L715.243 510.799V624H679.794V451.953H715.243L784.369 565.391V451.953H819.7V624ZM949.917 588.551H887.763L875.946 624H838.252L902.297 451.953H935.146L999.546 624H961.852L949.917 588.551ZM897.334 559.837H940.346L918.722 495.438L897.334 559.837ZM1104.83 578.861C1104.83 572.165 1102.47 567.045 1097.74 563.5C1093.01 559.876 1084.51 556.095 1072.22 552.156C1059.93 548.139 1050.2 544.2 1043.03 540.34C1023.49 529.784 1013.73 515.565 1013.73 497.683C1013.73 488.387 1016.33 480.116 1021.52 472.868C1026.8 465.542 1034.33 459.831 1044.09 455.734C1053.94 451.638 1064.97 449.59 1077.18 449.59C1089.47 449.59 1100.42 451.835 1110.03 456.325C1119.64 460.737 1127.08 466.999 1132.36 475.113C1137.72 483.227 1140.4 492.444 1140.4 502.764H1104.95C1104.95 494.886 1102.47 488.781 1097.5 484.448C1092.54 480.037 1085.57 477.831 1076.59 477.831C1067.92 477.831 1061.19 479.682 1056.38 483.385C1051.58 487.008 1049.17 491.814 1049.17 497.801C1049.17 503.394 1051.97 508.081 1057.56 511.862C1063.24 515.644 1071.55 519.188 1082.5 522.497C1102.66 528.563 1117.36 536.086 1126.57 545.066C1135.79 554.047 1140.4 565.233 1140.4 578.625C1140.4 593.514 1134.76 605.212 1123.5 613.72C1112.24 622.149 1097.07 626.363 1078.01 626.363C1064.77 626.363 1052.72 623.961 1041.85 619.155C1030.98 614.271 1022.67 607.615 1016.92 599.186C1011.24 590.757 1008.41 580.988 1008.41 569.881H1043.98C1043.98 588.866 1055.32 598.358 1078.01 598.358C1086.44 598.358 1093.01 596.665 1097.74 593.277C1102.47 589.811 1104.83 585.006 1104.83 578.861Z"/></svg>