<svg width="51" height="27" viewBox="0 0 51 27" fill="none" xmlns="http://www.w3.org/2000/svg">
<path d="M32.5636 17.8686L39.9326 0H35.0474L30.0069 11.5471L26.422 0H22.6669L18.8184 11.5471L16.1042 6.28528L13.648 13.6841L16.1417 17.8688H20.9495L24.4274 7.51358L27.7434 17.8688L32.5636 17.8686Z" fill="white"/>
<path d="M5.83312 11.7345H8.8345C9.74378 11.7345 10.5534 11.6352 11.2633 11.4362L12.0397 9.09212L14.2091 2.541C14.0424 2.28252 13.853 2.03885 13.6429 1.81277C12.5293 0.604318 10.8994 0 8.75369 0H1.20737V17.8686H5.83312V11.7345ZM9.80597 4.11078C10.2412 4.53992 10.4587 5.11433 10.4587 5.83403C10.4587 6.55907 10.2672 7.13403 9.88467 7.5591C9.46522 8.03132 8.69282 8.26743 7.56752 8.26743H5.83312V3.46708H7.58042C8.6291 3.46708 9.37097 3.68165 9.80619 4.11078H9.80597ZM36.939 14.6682L38.3413 11.2012H42.3896L40.4685 5.94194L42.8715 0L49.7541 17.8686H44.6783L43.5022 14.6682H36.939Z" fill="white"/>
<path d="M2.6279 24.2605V26.8708H1.06667V19.4621H4.0226C4.59158 19.4621 5.09119 19.5638 5.52138 19.7674C5.95506 19.9709 6.28815 20.261 6.5206 20.6375C6.75305 21.0106 6.86927 21.4364 6.86927 21.9147C6.86927 22.6406 6.61427 23.2139 6.10427 23.6346C5.59771 24.0518 4.89516 24.2605 3.99658 24.2605H2.6279ZM2.6279 23.024H4.0226C4.43545 23.024 4.74943 22.929 4.96457 22.739C5.18315 22.549 5.29241 22.2777 5.29241 21.9249C5.29241 21.5619 5.18315 21.2685 4.96457 21.0446C4.74599 20.8207 4.44413 20.7054 4.05904 20.6986H2.6279V23.024ZM9.60663 26.8708H8.0454V19.4621H9.60663V26.8708ZM12.6198 25.6445H15.9348V26.8708H11.0586V19.4621H12.6198V25.6445ZM18.4952 26.8708H16.934V19.4621H18.4952V26.8708ZM21.5084 24.2605V26.8708H19.9472V19.4621H22.9031C23.4721 19.4621 23.9717 19.5638 24.4019 19.7674C24.8356 19.9709 25.1687 20.261 25.4011 20.6375C25.6336 21.0106 25.7498 21.4364 25.7498 21.9147C25.7498 22.6406 25.4948 23.2139 24.9848 23.6346C24.4782 24.0518 23.7757 24.2605 22.8771 24.2605H21.5084ZM21.5084 23.024H22.9031C23.316 23.024 23.63 22.929 23.8451 22.739C24.0637 22.549 24.1729 22.2777 24.1729 21.9249C24.1729 21.5619 24.0637 21.2685 23.8451 21.0446C23.6265 20.8207 23.3247 20.7054 22.9396 20.6986H21.5084V23.024ZM28.4872 26.8708H26.9259V19.4621H28.4872V26.8708ZM36.1008 26.8708H34.5395L31.5003 21.9961V26.8708H29.9391V19.4621H31.5003L34.5447 24.347V19.4621H36.1008V26.8708ZM41.8357 25.3443H39.0984L38.5779 26.8708H36.9178L39.7385 19.4621H41.1852L44.0215 26.8708H42.3614L41.8357 25.3443ZM39.5199 24.1078H41.4142L40.4618 21.3346L39.5199 24.1078ZM48.6583 24.927C48.6583 24.6387 48.5544 24.4182 48.3461 24.2655C48.1377 24.1095 47.7634 23.9467 47.2221 23.777C46.6809 23.6041 46.2523 23.4344 45.9366 23.2682C45.076 22.8137 44.6461 22.2014 44.6461 21.4313C44.6461 21.031 44.7606 20.6748 44.9892 20.3627C45.2218 20.0473 45.5534 19.8013 45.9832 19.6249C46.417 19.4485 46.9028 19.3603 47.4406 19.3603C47.9818 19.3603 48.4641 19.457 48.8873 19.6503C49.3106 19.8403 49.6382 20.11 49.8708 20.4594C50.1068 20.8088 50.2249 21.2057 50.2249 21.6501H48.6636C48.6636 21.3109 48.5544 21.048 48.3355 20.8614C48.117 20.6714 47.8101 20.5764 47.4146 20.5764C47.0327 20.5764 46.7363 20.6561 46.5245 20.8156C46.3131 20.9716 46.207 21.1786 46.207 21.4364C46.207 21.6772 46.3303 21.8791 46.5765 22.0419C46.8266 22.2048 47.1926 22.3574 47.6749 22.4999C48.5627 22.7611 49.2102 23.085 49.6158 23.4717C50.0218 23.8585 50.2249 24.3402 50.2249 24.9169C50.2249 25.558 49.9765 26.0617 49.4806 26.4281C48.9847 26.7911 48.3166 26.9726 47.4771 26.9726C46.894 26.9726 46.3633 26.8691 45.8846 26.6622C45.4059 26.4519 45.0399 26.1652 44.7866 25.8023C44.5365 25.4393 44.4118 25.0186 44.4118 24.5403H45.9784C45.9784 25.3579 46.4778 25.7666 47.4771 25.7666C47.8484 25.7666 48.1377 25.6937 48.3461 25.5478C48.5544 25.3985 48.6583 25.1916 48.6583 24.927Z" fill="white"/>
</svg>
